G04 ================== begin FILE IDENTIFICATION RECORD ==================*
G04 Layout Name:  C:/Users/Dany/Desktop/Proiect CAD-Nou/PROIECT CAD 2-NEW.brd*
G04 Film Name:    FABRICATION*
G04 File Format:  Gerber RS274X*
G04 File Origin:  Cadence Allegro 17.2-S025*
G04 Origin Date:  Mon Jan 19 18:39:45 2026*
G04 *
G04 Layer:  MANUFACTURING/XSECTION_CHART*
G04 Layer:  MANUFACTURING/NCLEGEND-1-2*
G04 Layer:  MANUFACTURING/NCDRILL_FIGURE*
G04 Layer:  BOARD GEOMETRY/DIMENSION*
G04 Layer:  BOARD GEOMETRY/DESIGN_OUTLINE*
G04 *
G04 Offset:    (0.0000 0.0000)*
G04 Mirror:    No*
G04 Mode:      Positive*
G04 Rotation:  0*
G04 FullContactRelief:  No*
G04 UndefLineWidth:     0.0000*
G04 ================== end FILE IDENTIFICATION RECORD ====================*
%FSLAX25Y25*MOMM*%
%IR0*IPPOS*OFA0.00000B0.00000*MIA0B0*SFA1.00000B1.00000*%
%AMMACRO13*
1,1,0.0,.3175,0.0*
20,1,0.0,.3175,0.0,-.3175,0.0,0.0*
1,1,0.0,-.3175,0.0*
1,1,0.0,0.0,.3175*
20,1,0.0,0.0,.3175,0.0,-.3175,0.0*
1,1,0.0,0.0,-.3175*
%
%ADD13MACRO13*%
%AMMACRO12*
1,1,0.0,-.508,.3175*
20,1,0.0,-.508,.3175,-.500282,.405713,0.0*
1,1,0.0,-.500282,.405713*
20,1,0.0,-.500282,.405713,-.477364,.491246,0.0*
1,1,0.0,-.477364,.491246*
20,1,0.0,-.477364,.491246,-.439941,.5715,0.0*
1,1,0.0,-.439941,.5715*
20,1,0.0,-.439941,.5715,-.389151,.644036,0.0*
1,1,0.0,-.389151,.644036*
20,1,0.0,-.389151,.644036,-.326536,.706651,0.0*
1,1,0.0,-.326536,.706651*
20,1,0.0,-.326536,.706651,-.254,.757441,0.0*
1,1,0.0,-.254,.757441*
20,1,0.0,-.254,.757441,-.173746,.794864,0.0*
1,1,0.0,-.173746,.794864*
20,1,0.0,-.173746,.794864,-.088213,.817782,0.0*
1,1,0.0,-.088213,.817782*
20,1,0.0,-.088213,.817782,0.0,.8255,0.0*
1,1,0.0,0.0,.8255*
20,1,0.0,0.0,.8255,.088213,.817782,0.0*
1,1,0.0,.088213,.817782*
20,1,0.0,.088213,.817782,.173746,.794864,0.0*
1,1,0.0,.173746,.794864*
20,1,0.0,.173746,.794864,.254,.757441,0.0*
1,1,0.0,.254,.757441*
20,1,0.0,.254,.757441,.326536,.706651,0.0*
1,1,0.0,.326536,.706651*
20,1,0.0,.326536,.706651,.389151,.644036,0.0*
1,1,0.0,.389151,.644036*
20,1,0.0,.389151,.644036,.439941,.5715,0.0*
1,1,0.0,.439941,.5715*
20,1,0.0,.439941,.5715,.477364,.491246,0.0*
1,1,0.0,.477364,.491246*
20,1,0.0,.477364,.491246,.500282,.405713,0.0*
1,1,0.0,.500282,.405713*
20,1,0.0,.500282,.405713,.508,.3175,0.0*
1,1,0.0,.508,.3175*
20,1,0.0,.508,.3175,.508,-.3175,0.0*
1,1,0.0,.508,-.3175*
20,1,0.0,.508,-.3175,.500282,-.405713,0.0*
1,1,0.0,.500282,-.405713*
20,1,0.0,.500282,-.405713,.477364,-.491246,0.0*
1,1,0.0,.477364,-.491246*
20,1,0.0,.477364,-.491246,.439941,-.5715,0.0*
1,1,0.0,.439941,-.5715*
20,1,0.0,.439941,-.5715,.389151,-.644036,0.0*
1,1,0.0,.389151,-.644036*
20,1,0.0,.389151,-.644036,.326536,-.706651,0.0*
1,1,0.0,.326536,-.706651*
20,1,0.0,.326536,-.706651,.254,-.757441,0.0*
1,1,0.0,.254,-.757441*
20,1,0.0,.254,-.757441,.173746,-.794864,0.0*
1,1,0.0,.173746,-.794864*
20,1,0.0,.173746,-.794864,.088213,-.817782,0.0*
1,1,0.0,.088213,-.817782*
20,1,0.0,.088213,-.817782,0.0,-.8255,0.0*
1,1,0.0,0.0,-.8255*
20,1,0.0,0.0,-.8255,-.088213,-.817782,0.0*
1,1,0.0,-.088213,-.817782*
20,1,0.0,-.088213,-.817782,-.173746,-.794864,0.0*
1,1,0.0,-.173746,-.794864*
20,1,0.0,-.173746,-.794864,-.254,-.757441,0.0*
1,1,0.0,-.254,-.757441*
20,1,0.0,-.254,-.757441,-.326536,-.706651,0.0*
1,1,0.0,-.326536,-.706651*
20,1,0.0,-.326536,-.706651,-.389151,-.644036,0.0*
1,1,0.0,-.389151,-.644036*
20,1,0.0,-.389151,-.644036,-.439941,-.5715,0.0*
1,1,0.0,-.439941,-.5715*
20,1,0.0,-.439941,-.5715,-.477364,-.491246,0.0*
1,1,0.0,-.477364,-.491246*
20,1,0.0,-.477364,-.491246,-.500282,-.405713,0.0*
1,1,0.0,-.500282,-.405713*
20,1,0.0,-.500282,-.405713,-.508,-.3175,0.0*
1,1,0.0,-.508,-.3175*
20,1,0.0,-.508,-.3175,-.508,.3175,0.0*
1,1,0.0,-.508,.3175*
%
%ADD12MACRO12*%
%AMMACRO11*
1,1,0.0,.635,0.0*
20,1,0.0,.635,0.0,.3175,.549926,0.0*
1,1,0.0,.3175,.549926*
20,1,0.0,.3175,.549926,-.3175,.549926,0.0*
1,1,0.0,-.3175,.549926*
20,1,0.0,-.3175,.549926,-.635,0.0,0.0*
1,1,0.0,-.635,0.0*
20,1,0.0,-.635,0.0,-.3175,-.549926,0.0*
1,1,0.0,-.3175,-.549926*
20,1,0.0,-.3175,-.549926,.3175,-.549926,0.0*
1,1,0.0,.3175,-.549926*
20,1,0.0,.3175,-.549926,.635,0.0,0.0*
1,1,0.0,.635,0.0*
%
%ADD11MACRO11*%
%AMMACRO10*
1,1,0.0,-.6668,-.9525*
20,1,0.0,-.6668,-.9525,.6668,.9525,0.0*
1,1,0.0,.6668,.9525*
1,1,0.0,-.6668,.9525*
20,1,0.0,-.6668,.9525,.6668,-.9525,0.0*
1,1,0.0,.6668,-.9525*
%
%ADD10MACRO10*%
%ADD14C,.2*%
G75*
%LPD*%
G75*
G36*
G01X-12970880Y-929150D02*
Y-1514360D01*
X-12907380D01*
Y-5415800D01*
X-12970880D01*
Y-6001010D01*
X-12589880D01*
Y-5415800D01*
X-12653380D01*
Y-1514360D01*
X-12589880D01*
Y-929150D01*
X-12970880D01*
G37*
G36*
G01X-13478880Y-6001010D02*
Y-5415800D01*
X-11954880D01*
Y-6001010D01*
X-13478880D01*
G37*
G36*
G01Y-1514360D02*
Y-929150D01*
X-11954880D01*
Y-1514360D01*
X-13478880D01*
G37*
G54D10*
X-7833270Y-10642500D03*
X-5730000Y-5730000D03*
X-270000D03*
Y-270000D03*
G54D11*
X-7833270Y-9372500D03*
X-4000000Y-5154000D03*
Y-4900000D03*
X-3692000Y-3775000D03*
X-3946000D03*
X-4200000D03*
Y-2759000D03*
X-3946000D03*
X-3692000D03*
X-3175000Y-4921000D03*
Y-5175000D03*
X-2930000Y-3775000D03*
X-3184000D03*
X-3438000D03*
Y-2759000D03*
X-3184000D03*
X-2930000D03*
X-2700000Y-5200000D03*
Y-4209400D03*
X-2168000Y-3775000D03*
X-2422000D03*
X-2676000D03*
Y-2759000D03*
X-2422000D03*
X-2168000D03*
X-1600000Y-2446000D03*
Y-2700000D03*
X-700000Y-2654000D03*
Y-2400000D03*
G54D12*
X-7833270Y-10007500D03*
X-4825000Y-5154000D03*
Y-4900000D03*
X-2000000Y-5191000D03*
Y-4175000D03*
X-1150000Y-3916000D03*
Y-2900000D03*
G54D13*
X-7833270Y-8737500D03*
X-4825000Y-1614400D03*
X-4350000D03*
X-4825000Y-700000D03*
X-4350000D03*
X-3925000Y-1614400D03*
X-3500000D03*
X-3925000Y-700000D03*
X-3500000D03*
X-3100000Y-1614400D03*
Y-700000D03*
X-2700000Y-1614400D03*
X-2275000D03*
X-2700000Y-700000D03*
X-2275000D03*
X-1850000Y-1614400D03*
X-1425000D03*
X-1850000Y-700000D03*
X-1425000D03*
X-1025000Y-1614400D03*
Y-700000D03*
G54D14*
G01X-14265000Y-6531000D02*
X-14165000D01*
G01X-14149760D02*
X-14049760D01*
G01X-14034520D02*
X-13934520D01*
G01X-13919280D02*
X-13819280D01*
G01X-13804040D02*
X-13704040D01*
G01X-13688800D02*
X-13588800D01*
G01X-13573560D02*
X-13473560D01*
G01X-13458320D02*
X-13358320D01*
G01X-13343080D02*
X-13243080D01*
G01X-13227840D02*
X-13127840D01*
G01X-13112600D02*
X-13012600D01*
G01X-12997360D02*
X-12897360D01*
G01X-12882120D02*
X-12782120D01*
G01X-12766880D02*
X-12666880D01*
G01X-12651640D02*
X-12551640D01*
G01X-12536400D02*
X-12436400D01*
G01X-12421160D02*
X-12321160D01*
G01X-12305920D02*
X-12205920D01*
G01X-12190680D02*
X-12090680D01*
G01X-12075440D02*
X-11975440D01*
G01X-11960200D02*
X-11860200D01*
G01X-11844960D02*
X-11744960D01*
G01X-11729720D02*
X-11629720D01*
G01X-11614480D02*
X-11514480D01*
G01X-11499240D02*
X-11399240D01*
G01X-11384000D02*
X-11284000D01*
G01X-11268760D02*
X-11168760D01*
G01X-14194050Y-6487670D02*
Y-6357670D01*
X-14160710D01*
X-14147380Y-6364170D01*
X-14137380Y-6372840D01*
X-14129050Y-6385830D01*
X-14122380Y-6401010D01*
X-14120710Y-6422670D01*
X-14122380Y-6444340D01*
X-14129050Y-6459510D01*
X-14137380Y-6472510D01*
X-14147380Y-6481170D01*
X-14160710Y-6487670D01*
X-14194050D01*
G01X-14008810D02*
X-14075470D01*
Y-6357670D01*
X-14008810D01*
G01X-14035470Y-6420500D02*
X-14075470D01*
G01X-13961900Y-6470340D02*
X-13948570Y-6481170D01*
X-13933570Y-6487670D01*
X-13920230D01*
X-13906900Y-6481170D01*
X-13896900Y-6470340D01*
X-13891900Y-6455170D01*
X-13895230Y-6440010D01*
X-13903570Y-6427000D01*
X-13918570Y-6418340D01*
X-13938570Y-6414000D01*
X-13950230Y-6405340D01*
X-13955230Y-6390170D01*
X-13951900Y-6375000D01*
X-13943570Y-6364170D01*
X-13931900Y-6357670D01*
X-13920230D01*
X-13908570Y-6362000D01*
X-13898570Y-6372840D01*
G01X-13831660Y-6357670D02*
X-13791660D01*
G01X-13811660D02*
Y-6487670D01*
G01X-13831660D02*
X-13791660D01*
G01X-13686420Y-6422670D02*
X-13653090D01*
Y-6461670D01*
X-13663090Y-6474670D01*
X-13674750Y-6483340D01*
X-13691420Y-6487670D01*
X-13708090Y-6483340D01*
X-13719750Y-6474670D01*
X-13729750Y-6461670D01*
X-13736420Y-6446500D01*
X-13739750Y-6429170D01*
Y-6414000D01*
X-13736420Y-6401010D01*
X-13729750Y-6385830D01*
X-13719750Y-6372840D01*
X-13709760Y-6364170D01*
X-13696420Y-6357670D01*
X-13684750D01*
X-13671420Y-6362000D01*
X-13661420Y-6370670D01*
G01X-13619510Y-6487670D02*
Y-6357670D01*
X-13542850Y-6487670D01*
Y-6357670D01*
G01X-13314030Y-6368500D02*
X-13324030Y-6362000D01*
X-13335700Y-6357670D01*
X-13349030D01*
X-13364040Y-6364170D01*
X-13375700Y-6375000D01*
X-13384030Y-6388000D01*
X-13390700Y-6409670D01*
X-13392370Y-6429170D01*
X-13389030Y-6448670D01*
X-13384030Y-6461670D01*
X-13374030Y-6474670D01*
X-13362370Y-6483340D01*
X-13350700Y-6487670D01*
X-13339030D01*
X-13327370Y-6483340D01*
X-13317370Y-6476840D01*
X-13309030Y-6468170D01*
G01X-13268790Y-6487670D02*
Y-6357670D01*
X-13227130D01*
X-13213790Y-6364170D01*
X-13205460Y-6372840D01*
X-13202130Y-6390170D01*
X-13205460Y-6407500D01*
X-13215460Y-6418340D01*
X-13227130Y-6424840D01*
X-13268790D01*
G01X-13227130D02*
X-13202130Y-6487670D01*
G01X-13120220D02*
X-13133560Y-6485500D01*
X-13145220Y-6476840D01*
X-13155220Y-6463840D01*
X-13161890Y-6448670D01*
X-13165220Y-6431340D01*
Y-6414000D01*
X-13161890Y-6396670D01*
X-13155220Y-6381500D01*
X-13145220Y-6368500D01*
X-13133560Y-6359840D01*
X-13120220Y-6357670D01*
X-13106890Y-6359840D01*
X-13095220Y-6368500D01*
X-13085220Y-6381500D01*
X-13078550Y-6396670D01*
X-13075220Y-6414000D01*
Y-6431340D01*
X-13078550Y-6448670D01*
X-13085220Y-6463840D01*
X-13095220Y-6476840D01*
X-13106890Y-6485500D01*
X-13120220Y-6487670D01*
G01X-13039980Y-6470340D02*
X-13026650Y-6481170D01*
X-13011650Y-6487670D01*
X-12998310D01*
X-12984980Y-6481170D01*
X-12974980Y-6470340D01*
X-12969980Y-6455170D01*
X-12973310Y-6440010D01*
X-12981650Y-6427000D01*
X-12996650Y-6418340D01*
X-13016650Y-6414000D01*
X-13028310Y-6405340D01*
X-13033310Y-6390170D01*
X-13029980Y-6375000D01*
X-13021650Y-6364170D01*
X-13009980Y-6357670D01*
X-12998310D01*
X-12986650Y-6362000D01*
X-12976650Y-6372840D01*
G01X-12924740Y-6470340D02*
X-12911410Y-6481170D01*
X-12896410Y-6487670D01*
X-12883070D01*
X-12869740Y-6481170D01*
X-12859740Y-6470340D01*
X-12854740Y-6455170D01*
X-12858070Y-6440010D01*
X-12866410Y-6427000D01*
X-12881410Y-6418340D01*
X-12901410Y-6414000D01*
X-12913070Y-6405340D01*
X-12918070Y-6390170D01*
X-12914740Y-6375000D01*
X-12906410Y-6364170D01*
X-12894740Y-6357670D01*
X-12883070D01*
X-12871410Y-6362000D01*
X-12861410Y-6372840D01*
G01X-12694260Y-6470340D02*
X-12680930Y-6481170D01*
X-12665930Y-6487670D01*
X-12652590D01*
X-12639260Y-6481170D01*
X-12629260Y-6470340D01*
X-12624260Y-6455170D01*
X-12627590Y-6440010D01*
X-12635930Y-6427000D01*
X-12650930Y-6418340D01*
X-12670930Y-6414000D01*
X-12682590Y-6405340D01*
X-12687590Y-6390170D01*
X-12684260Y-6375000D01*
X-12675930Y-6364170D01*
X-12664260Y-6357670D01*
X-12652590D01*
X-12640930Y-6362000D01*
X-12630930Y-6372840D01*
G01X-12510690Y-6487670D02*
X-12577350D01*
Y-6357670D01*
X-12510690D01*
G01X-12537350Y-6420500D02*
X-12577350D01*
G01X-12392110Y-6368500D02*
X-12402110Y-6362000D01*
X-12413780Y-6357670D01*
X-12427110D01*
X-12442120Y-6364170D01*
X-12453780Y-6375000D01*
X-12462110Y-6388000D01*
X-12468780Y-6409670D01*
X-12470450Y-6429170D01*
X-12467110Y-6448670D01*
X-12462110Y-6461670D01*
X-12452110Y-6474670D01*
X-12440450Y-6483340D01*
X-12428780Y-6487670D01*
X-12417110D01*
X-12405450Y-6483340D01*
X-12395450Y-6476840D01*
X-12387110Y-6468170D01*
G01X-12313540Y-6357670D02*
Y-6487670D01*
G01X-12351870Y-6357670D02*
X-12275210D01*
G01X-12218300D02*
X-12178300D01*
G01X-12198300D02*
Y-6487670D01*
G01X-12218300D02*
X-12178300D01*
G01X-12083060D02*
X-12096400Y-6485500D01*
X-12108060Y-6476840D01*
X-12118060Y-6463840D01*
X-12124730Y-6448670D01*
X-12128060Y-6431340D01*
Y-6414000D01*
X-12124730Y-6396670D01*
X-12118060Y-6381500D01*
X-12108060Y-6368500D01*
X-12096400Y-6359840D01*
X-12083060Y-6357670D01*
X-12069730Y-6359840D01*
X-12058060Y-6368500D01*
X-12048060Y-6381500D01*
X-12041390Y-6396670D01*
X-12038060Y-6414000D01*
Y-6431340D01*
X-12041390Y-6448670D01*
X-12048060Y-6463840D01*
X-12058060Y-6476840D01*
X-12069730Y-6485500D01*
X-12083060Y-6487670D01*
G01X-12006150D02*
Y-6357670D01*
X-11929490Y-6487670D01*
Y-6357670D01*
G01X-11700670Y-6368500D02*
X-11710670Y-6362000D01*
X-11722340Y-6357670D01*
X-11735670D01*
X-11750680Y-6364170D01*
X-11762340Y-6375000D01*
X-11770670Y-6388000D01*
X-11777340Y-6409670D01*
X-11779010Y-6429170D01*
X-11775670Y-6448670D01*
X-11770670Y-6461670D01*
X-11760670Y-6474670D01*
X-11749010Y-6483340D01*
X-11737340Y-6487670D01*
X-11725670D01*
X-11714010Y-6483340D01*
X-11704010Y-6476840D01*
X-11695670Y-6468170D01*
G01X-11657100Y-6487670D02*
Y-6357670D01*
G01X-11587100D02*
Y-6487670D01*
G01Y-6422670D02*
X-11657100D01*
G01X-11548530Y-6487670D02*
X-11506860Y-6357670D01*
X-11465190Y-6487670D01*
G01X-11480190Y-6442170D02*
X-11533530D01*
G01X-11424950Y-6487670D02*
Y-6357670D01*
X-11383290D01*
X-11369950Y-6364170D01*
X-11361620Y-6372840D01*
X-11358290Y-6390170D01*
X-11361620Y-6407500D01*
X-11371620Y-6418340D01*
X-11383290Y-6424840D01*
X-11424950D01*
G01X-11383290D02*
X-11358290Y-6487670D01*
G01X-11276380Y-6357670D02*
Y-6487670D01*
G01X-11314710Y-6357670D02*
X-11238050D01*
G01X-14157380Y-6591670D02*
Y-6721670D01*
G01X-14195710Y-6591670D02*
X-14119050D01*
G01X-14042140Y-6721670D02*
X-14055480Y-6719500D01*
X-14067140Y-6710840D01*
X-14077140Y-6697840D01*
X-14083810Y-6682670D01*
X-14087140Y-6665340D01*
Y-6648000D01*
X-14083810Y-6630670D01*
X-14077140Y-6615500D01*
X-14067140Y-6602500D01*
X-14055480Y-6593840D01*
X-14042140Y-6591670D01*
X-14028810Y-6593840D01*
X-14017140Y-6602500D01*
X-14007140Y-6615500D01*
X-14000470Y-6630670D01*
X-13997140Y-6648000D01*
Y-6665340D01*
X-14000470Y-6682670D01*
X-14007140Y-6697840D01*
X-14017140Y-6710840D01*
X-14028810Y-6719500D01*
X-14042140Y-6721670D01*
G01X-13926900Y-6591670D02*
Y-6721670D01*
G01X-13965230Y-6591670D02*
X-13888570D01*
G01X-13853330Y-6721670D02*
X-13811660Y-6591670D01*
X-13769990Y-6721670D01*
G01X-13784990Y-6676170D02*
X-13838330D01*
G01X-13729750Y-6591670D02*
Y-6721670D01*
X-13663090D01*
G01X-13465940Y-6591670D02*
Y-6721670D01*
G01X-13504270Y-6591670D02*
X-13427610D01*
G01X-13385700Y-6721670D02*
Y-6591670D01*
G01X-13315700D02*
Y-6721670D01*
G01Y-6656670D02*
X-13385700D01*
G01X-13255460Y-6591670D02*
X-13215460D01*
G01X-13235460D02*
Y-6721670D01*
G01X-13255460D02*
X-13215460D01*
G01X-13083550Y-6602500D02*
X-13093550Y-6596000D01*
X-13105220Y-6591670D01*
X-13118550D01*
X-13133560Y-6598170D01*
X-13145220Y-6609000D01*
X-13153550Y-6622000D01*
X-13160220Y-6643670D01*
X-13161890Y-6663170D01*
X-13158550Y-6682670D01*
X-13153550Y-6695670D01*
X-13143550Y-6708670D01*
X-13131890Y-6717340D01*
X-13120220Y-6721670D01*
X-13108550D01*
X-13096890Y-6717340D01*
X-13086890Y-6710840D01*
X-13078550Y-6702170D01*
G01X-13041650Y-6721670D02*
Y-6591670D01*
G01X-12978310D02*
X-13041650Y-6671840D01*
G01X-12968310Y-6721670D02*
X-13013310Y-6635010D01*
G01X-12928070Y-6721670D02*
Y-6591670D01*
X-12851410Y-6721670D01*
Y-6591670D01*
G01X-12741170Y-6721670D02*
X-12807830D01*
Y-6591670D01*
X-12741170D01*
G01X-12767830Y-6654500D02*
X-12807830D01*
G01X-12694260Y-6704340D02*
X-12680930Y-6715170D01*
X-12665930Y-6721670D01*
X-12652590D01*
X-12639260Y-6715170D01*
X-12629260Y-6704340D01*
X-12624260Y-6689170D01*
X-12627590Y-6674010D01*
X-12635930Y-6661000D01*
X-12650930Y-6652340D01*
X-12670930Y-6648000D01*
X-12682590Y-6639340D01*
X-12687590Y-6624170D01*
X-12684260Y-6609000D01*
X-12675930Y-6598170D01*
X-12664260Y-6591670D01*
X-12652590D01*
X-12640930Y-6596000D01*
X-12630930Y-6606840D01*
G01X-12579020Y-6704340D02*
X-12565690Y-6715170D01*
X-12550690Y-6721670D01*
X-12537350D01*
X-12524020Y-6715170D01*
X-12514020Y-6704340D01*
X-12509020Y-6689170D01*
X-12512350Y-6674010D01*
X-12520690Y-6661000D01*
X-12535690Y-6652340D01*
X-12555690Y-6648000D01*
X-12567350Y-6639340D01*
X-12572350Y-6624170D01*
X-12569020Y-6609000D01*
X-12560690Y-6598170D01*
X-12549020Y-6591670D01*
X-12537350D01*
X-12525690Y-6596000D01*
X-12515690Y-6606840D01*
G01X-12313540Y-6591670D02*
X-12326880Y-6596000D01*
X-12336870Y-6606840D01*
X-12343540Y-6619830D01*
X-12348540Y-6637170D01*
X-12350210Y-6656670D01*
X-12348540Y-6676170D01*
X-12343540Y-6693510D01*
X-12336870Y-6706510D01*
X-12326880Y-6717340D01*
X-12313540Y-6721670D01*
X-12300210Y-6717340D01*
X-12290210Y-6706510D01*
X-12283540Y-6693510D01*
X-12278540Y-6676170D01*
X-12276870Y-6656670D01*
X-12278540Y-6637170D01*
X-12283540Y-6619830D01*
X-12290210Y-6606840D01*
X-12300210Y-6596000D01*
X-12313540Y-6591670D01*
G01X-12198300Y-6726000D02*
X-12201630Y-6723840D01*
Y-6719500D01*
X-12198300Y-6717340D01*
X-12194970Y-6719500D01*
Y-6723840D01*
X-12198300Y-6726000D01*
G01X-12114730Y-6613340D02*
X-12104730Y-6600340D01*
X-12093060Y-6593840D01*
X-12079730Y-6591670D01*
X-12063060Y-6596000D01*
X-12051390Y-6606840D01*
X-12048060Y-6619830D01*
X-12049730Y-6632840D01*
X-12056390Y-6643670D01*
X-12089730Y-6665340D01*
X-12104730Y-6680500D01*
X-12114730Y-6702170D01*
X-12118060Y-6721670D01*
X-12048060D01*
G01X-11999490Y-6667510D02*
X-11987820Y-6652340D01*
X-11977820Y-6643670D01*
X-11964490Y-6639340D01*
X-11952820Y-6643670D01*
X-11944490Y-6652340D01*
X-11937820Y-6665340D01*
X-11936150Y-6680500D01*
X-11937820Y-6693510D01*
X-11944490Y-6706510D01*
X-11954490Y-6717340D01*
X-11966150Y-6721670D01*
X-11979490Y-6717340D01*
X-11991150Y-6704340D01*
X-11997820Y-6684840D01*
X-11999490Y-6663170D01*
X-11996150Y-6635010D01*
X-11991150Y-6619830D01*
X-11982820Y-6604670D01*
X-11971150Y-6593840D01*
X-11959490Y-6591670D01*
X-11947820Y-6596000D01*
X-11939490Y-6606840D01*
G01X-11832580Y-6721670D02*
Y-6591670D01*
X-11894250Y-6684840D01*
X-11810910D01*
G01X-11737340Y-6721670D02*
Y-6591670D01*
X-11757340Y-6617670D01*
G01Y-6721670D02*
X-11717340D01*
G01X-11653770Y-6667510D02*
X-11642100Y-6652340D01*
X-11632100Y-6643670D01*
X-11618770Y-6639340D01*
X-11607100Y-6643670D01*
X-11598770Y-6652340D01*
X-11592100Y-6665340D01*
X-11590430Y-6680500D01*
X-11592100Y-6693510D01*
X-11598770Y-6706510D01*
X-11608770Y-6717340D01*
X-11620430Y-6721670D01*
X-11633770Y-6717340D01*
X-11645430Y-6704340D01*
X-11652100Y-6684840D01*
X-11653770Y-6663170D01*
X-11650430Y-6635010D01*
X-11645430Y-6619830D01*
X-11637100Y-6604670D01*
X-11625430Y-6593840D01*
X-11613770Y-6591670D01*
X-11602100Y-6596000D01*
X-11593770Y-6606840D01*
G01X-11434950Y-6721670D02*
Y-6591670D01*
X-11391620Y-6700000D01*
X-11348290Y-6591670D01*
Y-6721670D01*
G01X-11319710D02*
Y-6591670D01*
X-11276380Y-6700000D01*
X-11233050Y-6591670D01*
Y-6721670D01*
G01X-12780380Y-749150D02*
X-12910380D01*
X-12884380Y-769150D01*
G01X-12780380D02*
Y-729150D01*
G01X-12823710Y-655580D02*
Y-612240D01*
G01X-12888710Y-550340D02*
X-12901710Y-540340D01*
X-12908210Y-528670D01*
X-12910380Y-515340D01*
X-12906050Y-498670D01*
X-12895210Y-487000D01*
X-12882220Y-483670D01*
X-12869210Y-485340D01*
X-12858380Y-492000D01*
X-12836710Y-525340D01*
X-12821550Y-540340D01*
X-12799880Y-550340D01*
X-12780380Y-553670D01*
Y-483670D01*
G01X-11822970Y-5578400D02*
Y-5708400D01*
X-11756310D01*
G01X-11706070Y-5600070D02*
X-11696070Y-5587070D01*
X-11684400Y-5580570D01*
X-11671070Y-5578400D01*
X-11654400Y-5582730D01*
X-11642730Y-5593570D01*
X-11639400Y-5606560D01*
X-11641070Y-5619570D01*
X-11647730Y-5630400D01*
X-11681070Y-5652070D01*
X-11696070Y-5667230D01*
X-11706070Y-5688900D01*
X-11709400Y-5708400D01*
X-11639400D01*
G01X-11430590Y-5639070D02*
X-11423920Y-5632570D01*
X-11418920Y-5621740D01*
X-11415590Y-5606560D01*
X-11418920Y-5593570D01*
X-11425590Y-5584900D01*
X-11437250Y-5578400D01*
X-11482250D01*
Y-5708400D01*
X-11427250D01*
X-11415590Y-5699740D01*
X-11408920Y-5686730D01*
X-11405590Y-5671570D01*
X-11408920Y-5656400D01*
X-11418920Y-5643400D01*
X-11430590Y-5639070D01*
X-11482250D01*
G01X-11328680Y-5708400D02*
X-11342020Y-5706230D01*
X-11353680Y-5697570D01*
X-11363680Y-5684570D01*
X-11370350Y-5669400D01*
X-11373680Y-5652070D01*
Y-5634730D01*
X-11370350Y-5617400D01*
X-11363680Y-5602230D01*
X-11353680Y-5589230D01*
X-11342020Y-5580570D01*
X-11328680Y-5578400D01*
X-11315350Y-5580570D01*
X-11303680Y-5589230D01*
X-11293680Y-5602230D01*
X-11287010Y-5617400D01*
X-11283680Y-5634730D01*
Y-5652070D01*
X-11287010Y-5669400D01*
X-11293680Y-5684570D01*
X-11303680Y-5697570D01*
X-11315350Y-5706230D01*
X-11328680Y-5708400D01*
G01X-11213440Y-5578400D02*
Y-5708400D01*
G01X-11251770Y-5578400D02*
X-11175110D01*
G01X-11098200D02*
Y-5708400D01*
G01X-11136530Y-5578400D02*
X-11059870D01*
G01X-10982960Y-5708400D02*
X-10996300Y-5706230D01*
X-11007960Y-5697570D01*
X-11017960Y-5684570D01*
X-11024630Y-5669400D01*
X-11027960Y-5652070D01*
Y-5634730D01*
X-11024630Y-5617400D01*
X-11017960Y-5602230D01*
X-11007960Y-5589230D01*
X-10996300Y-5580570D01*
X-10982960Y-5578400D01*
X-10969630Y-5580570D01*
X-10957960Y-5589230D01*
X-10947960Y-5602230D01*
X-10941290Y-5617400D01*
X-10937960Y-5634730D01*
Y-5652070D01*
X-10941290Y-5669400D01*
X-10947960Y-5684570D01*
X-10957960Y-5697570D01*
X-10969630Y-5706230D01*
X-10982960Y-5708400D01*
G01X-10911050D02*
Y-5578400D01*
X-10867720Y-5686730D01*
X-10824390Y-5578400D01*
Y-5708400D01*
G01X-10600570Y-5589230D02*
X-10610570Y-5582730D01*
X-10622240Y-5578400D01*
X-10635570D01*
X-10650580Y-5584900D01*
X-10662240Y-5595730D01*
X-10670570Y-5608730D01*
X-10677240Y-5630400D01*
X-10678910Y-5649900D01*
X-10675570Y-5669400D01*
X-10670570Y-5682400D01*
X-10660570Y-5695400D01*
X-10648910Y-5704070D01*
X-10637240Y-5708400D01*
X-10625570D01*
X-10613910Y-5704070D01*
X-10603910Y-5697570D01*
X-10595570Y-5688900D01*
G01X-10522000Y-5708400D02*
X-10535340Y-5706230D01*
X-10547000Y-5697570D01*
X-10557000Y-5684570D01*
X-10563670Y-5669400D01*
X-10567000Y-5652070D01*
Y-5634730D01*
X-10563670Y-5617400D01*
X-10557000Y-5602230D01*
X-10547000Y-5589230D01*
X-10535340Y-5580570D01*
X-10522000Y-5578400D01*
X-10508670Y-5580570D01*
X-10497000Y-5589230D01*
X-10487000Y-5602230D01*
X-10480330Y-5617400D01*
X-10477000Y-5634730D01*
Y-5652070D01*
X-10480330Y-5669400D01*
X-10487000Y-5684570D01*
X-10497000Y-5697570D01*
X-10508670Y-5706230D01*
X-10522000Y-5708400D01*
G01X-10445090D02*
Y-5578400D01*
X-10368430Y-5708400D01*
Y-5578400D01*
G01X-10328190Y-5708400D02*
Y-5578400D01*
X-10294850D01*
X-10281520Y-5584900D01*
X-10271520Y-5593570D01*
X-10263190Y-5606560D01*
X-10256520Y-5621740D01*
X-10254850Y-5643400D01*
X-10256520Y-5665070D01*
X-10263190Y-5680240D01*
X-10271520Y-5693240D01*
X-10281520Y-5701900D01*
X-10294850Y-5708400D01*
X-10328190D01*
G01X-10212950Y-5578400D02*
Y-5671570D01*
X-10206280Y-5691070D01*
X-10192950Y-5704070D01*
X-10176280Y-5708400D01*
X-10159610Y-5704070D01*
X-10146280Y-5691070D01*
X-10139610Y-5671570D01*
Y-5578400D01*
G01X-10024370Y-5589230D02*
X-10034370Y-5582730D01*
X-10046040Y-5578400D01*
X-10059370D01*
X-10074380Y-5584900D01*
X-10086040Y-5595730D01*
X-10094370Y-5608730D01*
X-10101040Y-5630400D01*
X-10102710Y-5649900D01*
X-10099370Y-5669400D01*
X-10094370Y-5682400D01*
X-10084370Y-5695400D01*
X-10072710Y-5704070D01*
X-10061040Y-5708400D01*
X-10049370D01*
X-10037710Y-5704070D01*
X-10027710Y-5697570D01*
X-10019370Y-5688900D01*
G01X-9945800Y-5578400D02*
Y-5708400D01*
G01X-9984130Y-5578400D02*
X-9907470D01*
G01X-9830560Y-5708400D02*
X-9843900Y-5706230D01*
X-9855560Y-5697570D01*
X-9865560Y-5684570D01*
X-9872230Y-5669400D01*
X-9875560Y-5652070D01*
Y-5634730D01*
X-9872230Y-5617400D01*
X-9865560Y-5602230D01*
X-9855560Y-5589230D01*
X-9843900Y-5580570D01*
X-9830560Y-5578400D01*
X-9817230Y-5580570D01*
X-9805560Y-5589230D01*
X-9795560Y-5602230D01*
X-9788890Y-5617400D01*
X-9785560Y-5634730D01*
Y-5652070D01*
X-9788890Y-5669400D01*
X-9795560Y-5684570D01*
X-9805560Y-5697570D01*
X-9817230Y-5706230D01*
X-9830560Y-5708400D01*
G01X-9748650D02*
Y-5578400D01*
X-9706990D01*
X-9693650Y-5584900D01*
X-9685320Y-5593570D01*
X-9681990Y-5610900D01*
X-9685320Y-5628230D01*
X-9695320Y-5639070D01*
X-9706990Y-5645570D01*
X-9748650D01*
G01X-9706990D02*
X-9681990Y-5708400D01*
G01X-11595830Y-6178670D02*
X-11522490Y-6083340D01*
G01X-11559160Y-6066010D02*
Y-6196010D01*
G01X-11522490Y-6178670D02*
X-11595830Y-6083340D01*
G01X-11609160Y-6131010D02*
X-11509160D01*
G01X-11248440Y-6157010D02*
X-11235110Y-6167840D01*
X-11220110Y-6174340D01*
X-11206770D01*
X-11193440Y-6167840D01*
X-11183440Y-6157010D01*
X-11178440Y-6141840D01*
X-11181770Y-6126680D01*
X-11190110Y-6113670D01*
X-11205110Y-6105010D01*
X-11225110Y-6100670D01*
X-11236770Y-6092010D01*
X-11241770Y-6076840D01*
X-11238440Y-6061670D01*
X-11230110Y-6050840D01*
X-11218440Y-6044340D01*
X-11206770D01*
X-11195110Y-6048670D01*
X-11185110Y-6059510D01*
G01X-11134870Y-6044340D02*
Y-6137510D01*
X-11128200Y-6157010D01*
X-11114870Y-6170010D01*
X-11098200Y-6174340D01*
X-11081530Y-6170010D01*
X-11068200Y-6157010D01*
X-11061530Y-6137510D01*
Y-6044340D01*
G01X-11016290Y-6174340D02*
Y-6044340D01*
X-10974630D01*
X-10961290Y-6050840D01*
X-10952960Y-6059510D01*
X-10949630Y-6076840D01*
X-10952960Y-6094170D01*
X-10962960Y-6105010D01*
X-10974630Y-6111510D01*
X-11016290D01*
G01X-10974630D02*
X-10949630Y-6174340D01*
G01X-10899390D02*
Y-6044340D01*
X-10836050D01*
G01X-10859390Y-6107170D02*
X-10899390D01*
G01X-10794150Y-6174340D02*
X-10752480Y-6044340D01*
X-10710810Y-6174340D01*
G01X-10725810Y-6128840D02*
X-10779150D01*
G01X-10600570Y-6055170D02*
X-10610570Y-6048670D01*
X-10622240Y-6044340D01*
X-10635570D01*
X-10650580Y-6050840D01*
X-10662240Y-6061670D01*
X-10670570Y-6074670D01*
X-10677240Y-6096340D01*
X-10678910Y-6115840D01*
X-10675570Y-6135340D01*
X-10670570Y-6148340D01*
X-10660570Y-6161340D01*
X-10648910Y-6170010D01*
X-10637240Y-6174340D01*
X-10625570D01*
X-10613910Y-6170010D01*
X-10603910Y-6163510D01*
X-10595570Y-6154840D01*
G01X-10488670Y-6174340D02*
X-10555330D01*
Y-6044340D01*
X-10488670D01*
G01X-10515330Y-6107170D02*
X-10555330D01*
G01X-11595830Y-3469410D02*
X-11522490Y-3374080D01*
G01X-11559160Y-3356750D02*
Y-3486750D01*
G01X-11522490Y-3469410D02*
X-11595830Y-3374080D01*
G01X-11609160Y-3421750D02*
X-11509160D01*
G01X-11250110Y-3465080D02*
Y-3335080D01*
X-11216770D01*
X-11203440Y-3341580D01*
X-11193440Y-3350250D01*
X-11185110Y-3363240D01*
X-11178440Y-3378420D01*
X-11176770Y-3400080D01*
X-11178440Y-3421750D01*
X-11185110Y-3436920D01*
X-11193440Y-3449920D01*
X-11203440Y-3458580D01*
X-11216770Y-3465080D01*
X-11250110D01*
G01X-11118200Y-3335080D02*
X-11078200D01*
G01X-11098200D02*
Y-3465080D01*
G01X-11118200D02*
X-11078200D01*
G01X-10949630D02*
X-11016290D01*
Y-3335080D01*
X-10949630D01*
G01X-10976290Y-3397910D02*
X-11016290D01*
G01X-10901050Y-3335080D02*
Y-3465080D01*
X-10834390D01*
G01X-10719150D02*
X-10785810D01*
Y-3335080D01*
X-10719150D01*
G01X-10745810Y-3397910D02*
X-10785810D01*
G01X-10600570Y-3345910D02*
X-10610570Y-3339410D01*
X-10622240Y-3335080D01*
X-10635570D01*
X-10650580Y-3341580D01*
X-10662240Y-3352410D01*
X-10670570Y-3365410D01*
X-10677240Y-3387080D01*
X-10678910Y-3406580D01*
X-10675570Y-3426080D01*
X-10670570Y-3439080D01*
X-10660570Y-3452080D01*
X-10648910Y-3460750D01*
X-10637240Y-3465080D01*
X-10625570D01*
X-10613910Y-3460750D01*
X-10603910Y-3454250D01*
X-10595570Y-3445580D01*
G01X-10522000Y-3335080D02*
Y-3465080D01*
G01X-10560330Y-3335080D02*
X-10483670D01*
G01X-10440090Y-3465080D02*
Y-3335080D01*
X-10398430D01*
X-10385090Y-3341580D01*
X-10376760Y-3350250D01*
X-10373430Y-3367580D01*
X-10376760Y-3384910D01*
X-10386760Y-3395750D01*
X-10398430Y-3402250D01*
X-10440090D01*
G01X-10398430D02*
X-10373430Y-3465080D01*
G01X-10311520Y-3335080D02*
X-10271520D01*
G01X-10291520D02*
Y-3465080D01*
G01X-10311520D02*
X-10271520D01*
G01X-10139610Y-3345910D02*
X-10149610Y-3339410D01*
X-10161280Y-3335080D01*
X-10174610D01*
X-10189620Y-3341580D01*
X-10201280Y-3352410D01*
X-10209610Y-3365410D01*
X-10216280Y-3387080D01*
X-10217950Y-3406580D01*
X-10214610Y-3426080D01*
X-10209610Y-3439080D01*
X-10199610Y-3452080D01*
X-10187950Y-3460750D01*
X-10176280Y-3465080D01*
X-10164610D01*
X-10152950Y-3460750D01*
X-10142950Y-3454250D01*
X-10134610Y-3445580D01*
G01X-11822970Y-1091750D02*
Y-1221750D01*
X-11756310D01*
G01X-11674400D02*
Y-1091750D01*
X-11694400Y-1117750D01*
G01Y-1221750D02*
X-11654400D01*
G01X-11443920Y-1091750D02*
Y-1221750D01*
G01X-11482250Y-1091750D02*
X-11405590D01*
G01X-11328680Y-1221750D02*
X-11342020Y-1219580D01*
X-11353680Y-1210920D01*
X-11363680Y-1197920D01*
X-11370350Y-1182750D01*
X-11373680Y-1165420D01*
Y-1148080D01*
X-11370350Y-1130750D01*
X-11363680Y-1115580D01*
X-11353680Y-1102580D01*
X-11342020Y-1093920D01*
X-11328680Y-1091750D01*
X-11315350Y-1093920D01*
X-11303680Y-1102580D01*
X-11293680Y-1115580D01*
X-11287010Y-1130750D01*
X-11283680Y-1148080D01*
Y-1165420D01*
X-11287010Y-1182750D01*
X-11293680Y-1197920D01*
X-11303680Y-1210920D01*
X-11315350Y-1219580D01*
X-11328680Y-1221750D01*
G01X-11246770D02*
Y-1091750D01*
X-11206770D01*
X-11193440Y-1098250D01*
X-11183440Y-1113420D01*
X-11180110Y-1130750D01*
X-11183440Y-1148080D01*
X-11191770Y-1161080D01*
X-11206770Y-1167590D01*
X-11246770D01*
G01X-10946290Y-1102580D02*
X-10956290Y-1096080D01*
X-10967960Y-1091750D01*
X-10981290D01*
X-10996300Y-1098250D01*
X-11007960Y-1109080D01*
X-11016290Y-1122080D01*
X-11022960Y-1143750D01*
X-11024630Y-1163250D01*
X-11021290Y-1182750D01*
X-11016290Y-1195750D01*
X-11006290Y-1208750D01*
X-10994630Y-1217420D01*
X-10982960Y-1221750D01*
X-10971290D01*
X-10959630Y-1217420D01*
X-10949630Y-1210920D01*
X-10941290Y-1202250D01*
G01X-10867720Y-1221750D02*
X-10881060Y-1219580D01*
X-10892720Y-1210920D01*
X-10902720Y-1197920D01*
X-10909390Y-1182750D01*
X-10912720Y-1165420D01*
Y-1148080D01*
X-10909390Y-1130750D01*
X-10902720Y-1115580D01*
X-10892720Y-1102580D01*
X-10881060Y-1093920D01*
X-10867720Y-1091750D01*
X-10854390Y-1093920D01*
X-10842720Y-1102580D01*
X-10832720Y-1115580D01*
X-10826050Y-1130750D01*
X-10822720Y-1148080D01*
Y-1165420D01*
X-10826050Y-1182750D01*
X-10832720Y-1197920D01*
X-10842720Y-1210920D01*
X-10854390Y-1219580D01*
X-10867720Y-1221750D01*
G01X-10790810D02*
Y-1091750D01*
X-10714150Y-1221750D01*
Y-1091750D01*
G01X-10673910Y-1221750D02*
Y-1091750D01*
X-10640570D01*
X-10627240Y-1098250D01*
X-10617240Y-1106920D01*
X-10608910Y-1119910D01*
X-10602240Y-1135090D01*
X-10600570Y-1156750D01*
X-10602240Y-1178420D01*
X-10608910Y-1193590D01*
X-10617240Y-1206590D01*
X-10627240Y-1215250D01*
X-10640570Y-1221750D01*
X-10673910D01*
G01X-10558670Y-1091750D02*
Y-1184920D01*
X-10552000Y-1204420D01*
X-10538670Y-1217420D01*
X-10522000Y-1221750D01*
X-10505330Y-1217420D01*
X-10492000Y-1204420D01*
X-10485330Y-1184920D01*
Y-1091750D01*
G01X-10370090Y-1102580D02*
X-10380090Y-1096080D01*
X-10391760Y-1091750D01*
X-10405090D01*
X-10420100Y-1098250D01*
X-10431760Y-1109080D01*
X-10440090Y-1122080D01*
X-10446760Y-1143750D01*
X-10448430Y-1163250D01*
X-10445090Y-1182750D01*
X-10440090Y-1195750D01*
X-10430090Y-1208750D01*
X-10418430Y-1217420D01*
X-10406760Y-1221750D01*
X-10395090D01*
X-10383430Y-1217420D01*
X-10373430Y-1210920D01*
X-10365090Y-1202250D01*
G01X-10291520Y-1091750D02*
Y-1221750D01*
G01X-10329850Y-1091750D02*
X-10253190D01*
G01X-10176280Y-1221750D02*
X-10189620Y-1219580D01*
X-10201280Y-1210920D01*
X-10211280Y-1197920D01*
X-10217950Y-1182750D01*
X-10221280Y-1165420D01*
Y-1148080D01*
X-10217950Y-1130750D01*
X-10211280Y-1115580D01*
X-10201280Y-1102580D01*
X-10189620Y-1093920D01*
X-10176280Y-1091750D01*
X-10162950Y-1093920D01*
X-10151280Y-1102580D01*
X-10141280Y-1115580D01*
X-10134610Y-1130750D01*
X-10131280Y-1148080D01*
Y-1165420D01*
X-10134610Y-1182750D01*
X-10141280Y-1197920D01*
X-10151280Y-1210920D01*
X-10162950Y-1219580D01*
X-10176280Y-1221750D01*
G01X-10094370D02*
Y-1091750D01*
X-10052710D01*
X-10039370Y-1098250D01*
X-10031040Y-1106920D01*
X-10027710Y-1124250D01*
X-10031040Y-1141580D01*
X-10041040Y-1152420D01*
X-10052710Y-1158920D01*
X-10094370D01*
G01X-10052710D02*
X-10027710Y-1221750D01*
G01X-11595830Y-890150D02*
X-11522490Y-794820D01*
G01X-11559160Y-777490D02*
Y-907490D01*
G01X-11522490Y-890150D02*
X-11595830Y-794820D01*
G01X-11609160Y-842490D02*
X-11509160D01*
G01X-11248440Y-868490D02*
X-11235110Y-879320D01*
X-11220110Y-885820D01*
X-11206770D01*
X-11193440Y-879320D01*
X-11183440Y-868490D01*
X-11178440Y-853320D01*
X-11181770Y-838160D01*
X-11190110Y-825150D01*
X-11205110Y-816490D01*
X-11225110Y-812150D01*
X-11236770Y-803490D01*
X-11241770Y-788320D01*
X-11238440Y-773150D01*
X-11230110Y-762320D01*
X-11218440Y-755820D01*
X-11206770D01*
X-11195110Y-760150D01*
X-11185110Y-770990D01*
G01X-11134870Y-755820D02*
Y-848990D01*
X-11128200Y-868490D01*
X-11114870Y-881490D01*
X-11098200Y-885820D01*
X-11081530Y-881490D01*
X-11068200Y-868490D01*
X-11061530Y-848990D01*
Y-755820D01*
G01X-11016290Y-885820D02*
Y-755820D01*
X-10974630D01*
X-10961290Y-762320D01*
X-10952960Y-770990D01*
X-10949630Y-788320D01*
X-10952960Y-805650D01*
X-10962960Y-816490D01*
X-10974630Y-822990D01*
X-11016290D01*
G01X-10974630D02*
X-10949630Y-885820D01*
G01X-10899390D02*
Y-755820D01*
X-10836050D01*
G01X-10859390Y-818650D02*
X-10899390D01*
G01X-10794150Y-885820D02*
X-10752480Y-755820D01*
X-10710810Y-885820D01*
G01X-10725810Y-840320D02*
X-10779150D01*
G01X-10600570Y-766650D02*
X-10610570Y-760150D01*
X-10622240Y-755820D01*
X-10635570D01*
X-10650580Y-762320D01*
X-10662240Y-773150D01*
X-10670570Y-786150D01*
X-10677240Y-807820D01*
X-10678910Y-827320D01*
X-10675570Y-846820D01*
X-10670570Y-859820D01*
X-10660570Y-872820D01*
X-10648910Y-881490D01*
X-10637240Y-885820D01*
X-10625570D01*
X-10613910Y-881490D01*
X-10603910Y-874990D01*
X-10595570Y-866320D01*
G01X-10488670Y-885820D02*
X-10555330D01*
Y-755820D01*
X-10488670D01*
G01X-10515330Y-818650D02*
X-10555330D01*
M02*
